<svg width="201" height="201" viewBox="0 0 201 201" fill="none" xmlns="http://www.w3.org/2000/svg">
<circle cx="100.5" cy="100.5" r="100.5" fill="black"/>
<path d="M94.5381 167V169.947H103.641V172.894H94.8655V175.819H103.641V178.679H94.5381V181.626H106.916V167H94.5381Z" fill="white"/>
<path d="M89.1715 166.08L85.6099 169.029L85.4397 168.99L83.4252 164.768L79.5305 163.879L82.5872 170.108L82.5435 170.299L77.0968 174.542L80.949 175.421L84.5153 172.451L84.6856 172.49L86.6952 176.733L90.5899 177.622L87.5381 171.372L87.577 171.202L93.0236 166.959L89.1715 166.08Z" fill="white"/>
<path d="M76.2411 158.358L73.3523 164.357L73.2146 164.29C73.7137 162.399 72.9949 160.671 70.7134 159.573C67.7435 158.142 65.1348 159.333 63.6288 162.461C62.1228 165.588 62.8482 168.408 65.877 169.867C68.1979 170.985 69.9397 170.588 71.2029 168.87L71.3996 168.965L70.102 171.659L72.8359 172.976L79.1913 159.779L76.2411 158.358ZM72.3293 166.481L72.2536 166.638C71.4106 168.389 70.1146 168.564 68.2068 167.645C66.3384 166.746 65.747 165.71 66.6183 163.9C67.4803 162.11 68.6684 161.907 70.5565 162.817C72.4053 163.707 73.1439 164.789 72.3293 166.481Z" fill="white"/>
<path d="M58.6307 151.822L49.5115 163.257L52.0716 165.298L61.1908 153.863L58.6307 151.822Z" fill="white"/>
<path d="M49.1517 141.71C46.8242 138.791 43.5182 138.217 40.8215 140.367C38.0908 142.545 37.9322 145.882 40.2596 148.801C42.5871 151.719 45.8761 152.307 48.6068 150.13C51.3034 147.979 51.4791 144.628 49.1517 141.71ZM46.8817 143.52C48.27 145.261 48.0808 146.389 46.5788 147.587C45.0769 148.784 43.9008 148.745 42.5125 147.004C41.1378 145.28 41.3476 144.108 42.8495 142.91C44.3514 141.712 45.507 141.796 46.8817 143.52Z" fill="white"/>
<path d="M42.0365 130.889L36.3328 133.636C35.0937 134.233 34.2566 134.054 33.622 132.737C33.0443 131.537 33.3079 130.877 34.3897 130.356L35.4124 129.863L33.9917 126.913L32.3592 127.699C30.4318 128.628 29.353 130.262 30.4138 132.464C31.3705 134.451 33.0919 134.906 34.8176 134.414L34.9028 134.591L32.287 135.851L33.6035 138.585L43.4572 133.839L42.0365 130.889Z" fill="white"/>
<path d="M36.767 115.278C35.9947 111.894 33.8623 110.007 31.5425 110.536L31.3084 110.59L32.0371 113.782L32.2499 113.734C33.165 113.525 33.8051 114.073 34.2374 115.967C34.7086 118.031 34.1812 118.958 32.5619 119.417L30.58 110.734C30.2084 110.774 29.9221 110.794 29.539 110.882C26.1976 111.644 24.8968 114.382 25.6935 117.872C26.495 121.384 29.1934 123.298 32.5986 122.521C36.3869 121.656 37.5783 118.832 36.767 115.278ZM28.1981 117.368C27.7706 115.495 28.1935 114.503 29.5787 114.097L30.8708 119.758C29.4535 119.925 28.6304 119.262 28.1981 117.368Z" fill="white"/>
<path d="M35.5002 92.292L28.2641 90.6405L26.0003 90.2581L26.0538 90.024L28.4779 89.704L35.5427 88.1818L36.4268 84.3083L30.7221 79.8715L28.6769 78.5315L28.7303 78.2974L30.9407 78.9138L38.1767 80.5654L38.9053 77.373L24.6461 74.1184L23.6551 78.4601L29.94 83.298L32.985 85.3589L32.9316 85.593L29.2842 86.1711L21.4984 87.9095L20.5123 92.2298L34.7715 95.4844L35.5002 92.292Z" fill="white"/>
<path d="M42.0401 72.6075C43.6598 69.2443 42.7429 66.0164 39.6353 64.5199C36.4884 63.0044 33.4127 64.3096 31.7931 67.6728C30.1735 71.0361 31.0707 74.2545 34.2176 75.77C37.3251 77.2665 40.4205 75.9708 42.0401 72.6075ZM39.4243 71.3478C38.4582 73.354 37.3596 73.6729 35.6288 72.8394C33.8981 72.0059 33.4232 70.9292 34.3893 68.9231C35.3459 66.9366 36.4933 66.6169 38.224 67.4504C39.9548 68.2839 40.3809 69.3614 39.4243 71.3478Z" fill="white"/>
<path d="M48.7024 61.503L43.7529 57.5559C42.6777 56.6985 42.4752 55.8669 43.3872 54.7234C44.2174 53.6823 44.9264 53.6335 45.8651 54.3821L46.7526 55.0898L48.7942 52.5297L47.3777 51.4001C45.7051 50.0662 43.7648 49.8033 42.2404 51.7148C40.8657 53.4386 41.2025 55.187 42.3944 56.5284L42.2719 56.682L40.002 54.8718L38.1101 57.2442L46.6608 64.0631L48.7024 61.503Z" fill="white"/>
<path d="M60.4813 49.9816C63.195 47.8175 63.9697 45.0777 62.4862 43.2173L62.3365 43.0296L59.7764 45.0712L59.9125 45.2419C60.4977 45.9758 60.2817 46.7902 58.7627 48.0016C57.1072 49.3218 56.0436 49.2486 54.9273 47.9889L61.8908 42.4357C61.6935 42.1183 61.5507 41.8692 61.3057 41.562C59.1689 38.8825 56.138 38.8983 53.339 41.1304C50.5229 43.3762 49.969 46.638 52.1467 49.3687C54.5694 52.4067 57.6311 52.2546 60.4813 49.9816ZM54.8802 43.1681C56.3821 41.9704 57.4595 41.9209 58.4261 42.9929L53.8862 46.6133C53.121 45.4087 53.3612 44.3795 54.8802 43.1681Z" fill="white"/>
<path d="M89.3002 31.7186L88.6736 28.9732L80.7352 30.785L81.3618 33.5305L89.3002 31.7186Z" fill="white"/>
<path d="M121.052 38.9875L121.708 36.1143L112.833 34.0887L113.489 31.2156L122.045 33.1683L122.696 30.3165L114.14 28.3637L114.777 25.5757L123.651 27.6013L124.307 24.7282L112.24 21.974L108.985 36.2332L121.052 38.9875Z" fill="white"/>
<path d="M126.079 41.0786L130.207 38.9962L130.364 39.072L131.389 43.6359L134.988 45.3692L133.394 38.6169L133.479 38.4399L139.734 35.5156L136.174 33.8012L132.036 35.9033L131.878 35.8275L130.863 31.2439L127.264 29.5106L128.849 36.2826L128.773 36.4399L122.519 39.3642L126.079 41.0786Z" fill="white"/>
<path d="M136.968 51.4839L141.119 46.2784L141.238 46.3737C140.331 48.107 140.647 49.9509 142.627 51.5298C145.204 53.585 148.012 53.0045 150.176 50.2908C152.341 47.5771 152.261 44.6657 149.633 42.5697C147.619 40.9636 145.832 40.963 144.219 42.3564L144.048 42.2203L145.913 39.8821L143.54 37.9902L134.407 49.4423L136.968 51.4839ZM142.589 44.4352L142.698 44.2986C143.909 42.7797 145.211 42.897 146.867 44.2172C148.488 45.5102 148.834 46.6518 147.582 48.222C146.344 49.7751 145.14 49.7088 143.502 48.4021C141.897 47.1227 141.418 45.903 142.589 44.4352Z" fill="white"/>
<path d="M152.682 61.7752L164.117 52.6561L162.075 50.096L150.64 59.2151L152.682 61.7752Z" fill="white"/>
<path d="M159.673 73.7431C161.293 77.1064 164.388 78.4021 167.496 76.9056C170.643 75.3901 171.54 72.1717 169.92 68.8084C168.301 65.4452 165.225 64.14 162.078 65.6555C158.971 67.152 158.054 70.3799 159.673 73.7431ZM162.289 72.4834C161.323 70.4773 161.759 69.4195 163.489 68.586C165.22 67.7525 166.358 68.0526 167.324 70.0587C168.281 72.0452 167.815 73.1415 166.085 73.975C164.354 74.8085 163.246 74.4699 162.289 72.4834Z" fill="white"/>
<path d="M164.202 85.8755L170.374 84.4668C171.715 84.1608 172.491 84.521 172.816 85.9469C173.113 87.2451 172.709 87.8299 171.538 88.0971L170.432 88.3497L171.16 91.542L172.927 91.1389C175.012 90.6628 176.428 89.3098 175.884 86.9261C175.393 84.7766 173.816 83.9498 172.024 84.0453L171.98 83.8538L174.811 83.2077L174.136 80.2495L163.473 82.6831L164.202 85.8755Z" fill="white"/>
<path d="M165.865 102.268C165.865 105.739 167.524 108.053 169.903 108.053H170.143V104.779H169.925C168.986 104.779 168.484 104.102 168.484 102.159C168.484 100.042 169.205 99.2558 170.886 99.1685V108.075C171.257 108.119 171.54 108.162 171.933 108.162C175.361 108.162 177.238 105.783 177.238 102.203C177.238 98.6009 175.033 96.1341 171.54 96.1341C167.655 96.1341 165.865 98.6227 165.865 102.268ZM174.684 102.137C174.684 104.058 174.051 104.932 172.61 105.019V99.2121C174.029 99.3649 174.684 100.194 174.684 102.137Z" fill="white"/>
<path d="M161.985 124.959L168.672 128.18L170.794 129.056L170.69 129.273L168.255 129.045L161.029 128.957L159.305 132.537L163.88 138.132L165.575 139.893L165.471 140.11L163.453 139.017L156.766 135.796L155.345 138.747L168.523 145.093L170.455 141.08L165.404 134.965L162.894 132.278L162.999 132.062L166.683 132.31L174.661 132.348L176.583 128.355L163.406 122.009L161.985 124.959Z" fill="white"/>
<path d="M151.23 142.695C148.902 145.614 149.078 148.965 151.774 151.115C154.505 153.293 157.794 152.705 160.122 149.786C162.449 146.868 162.29 143.53 159.56 141.353C156.863 139.202 153.557 139.777 151.23 142.695ZM153.499 144.505C154.888 142.764 156.03 142.698 157.532 143.896C159.034 145.093 159.257 146.249 157.869 147.99C156.494 149.713 155.304 149.77 153.802 148.572C152.3 147.374 152.125 146.229 153.499 144.505Z" fill="white"/>
<path d="M142.263 152.039L146.21 156.988C147.068 158.064 147.08 158.919 145.937 159.831C144.895 160.661 144.193 160.551 143.445 159.613L142.737 158.725L140.177 160.767L141.307 162.183C142.64 163.856 144.474 164.544 146.385 163.02C148.109 161.645 148.17 159.865 147.306 158.292L147.46 158.17L149.27 160.44L151.642 158.548L144.823 149.997L142.263 152.039Z" fill="white"/>
<path d="M128.216 160.65C125.089 162.156 123.724 164.655 124.756 166.799L124.86 167.015L127.81 165.594L127.716 165.398C127.308 164.552 127.7 163.806 129.451 162.963C131.358 162.044 132.379 162.352 133.187 163.829L125.163 167.693C125.284 168.046 125.368 168.321 125.538 168.675C127.026 171.763 129.984 172.422 133.209 170.869C136.455 169.306 137.721 166.249 136.205 163.102C134.519 159.601 131.5 159.068 128.216 160.65ZM132.16 168.539C130.429 169.373 129.368 169.181 128.664 167.921L133.896 165.401C134.374 166.746 133.911 167.696 132.16 168.539Z" fill="white"/>
<path d="M126.522 96.6051C130.29 98.7806 130.29 104.219 126.522 106.395L94.7283 124.751C90.9601 126.926 86.25 124.207 86.25 119.856L86.25 83.144C86.25 78.793 90.9601 76.0736 94.7283 78.2491L126.522 96.6051Z" fill="white"/>
</svg>
