<svg width="25" height="24" viewBox="0 0 25 24" fill="none" xmlns="http://www.w3.org/2000/svg">
<g clip-path="url(#clip0_704_18977)">
<rect x="0.40625" width="24" height="24" rx="12" fill="#163300" fill-opacity="0.08"/>
<g clip-path="url(#clip1_704_18977)">
<mask id="mask0_704_18977" style="mask-type:luminance" maskUnits="userSpaceOnUse" x="0" y="0" width="25" height="24">
<path d="M24.4062 12C24.4062 5.37258 19.0337 0 12.4062 0C5.77883 0 0.40625 5.37258 0.40625 12C0.40625 18.6274 5.77883 24 12.4062 24C19.0337 24 24.4062 18.6274 24.4062 12Z" fill="white"/>
</mask>
<g mask="url(#mask0_704_18977)">
<path d="M24.4062 12C24.4062 5.37258 19.0337 0 12.4062 0C5.77883 0 0.40625 5.37258 0.40625 12C0.40625 18.6274 5.77883 24 12.4062 24C19.0337 24 24.4062 18.6274 24.4062 12Z" fill="white"/>
<mask id="mask1_704_18977" style="mask-type:luminance" maskUnits="userSpaceOnUse" x="0" y="0" width="25" height="24">
<path d="M12.4062 24C19.0337 24 24.4062 18.6274 24.4062 12C24.4062 5.37258 19.0337 0 12.4062 0C5.77883 0 0.40625 5.37258 0.40625 12C0.40625 18.6274 5.77883 24 12.4062 24Z" fill="white"/>
</mask>
<g mask="url(#mask1_704_18977)">
<path d="M0.40625 0H24.4062V24H0.40625V0Z" fill="white"/>
<path d="M12.4062 0H0.40625V12.9338H12.4062V0Z" fill="#231D9A"/>
<path d="M8.15795 3.17005L9.06091 2.26709L8.15795 1.36413L7.25499 2.26709L8.15795 3.17005Z" fill="white"/>
<path d="M8.15795 6.82215L9.06091 5.91919L8.15795 5.01623L7.25499 5.91919L8.15795 6.82215Z" fill="white"/>
<path d="M8.15795 10.474L9.06091 9.57104L8.15795 8.66808L7.25499 9.57104L8.15795 10.474Z" fill="white"/>
<path d="M3.34191 3.17005L4.24487 2.26709L3.34191 1.36413L2.43895 2.26709L3.34191 3.17005Z" fill="white"/>
<path d="M3.34191 6.82215L4.24487 5.91919L3.34191 5.01623L2.43895 5.91919L3.34191 6.82215Z" fill="white"/>
<path d="M3.34191 10.474L4.24487 9.57104L3.34191 8.66808L2.43895 9.57104L3.34191 10.474Z" fill="white"/>
<path d="M10.5658 4.99598L11.4688 4.09302L10.5658 3.19006L9.66283 4.09302L10.5658 4.99598Z" fill="white"/>
<path d="M10.5658 1.34437L11.4688 0.441406L10.5658 -0.461555L9.66283 0.441407L10.5658 1.34437Z" fill="white"/>
<path d="M10.5658 8.64783L11.4688 7.74487L10.5658 6.84191L9.66283 7.74487L10.5658 8.64783Z" fill="white"/>
<path d="M10.5658 12.2999L11.4688 11.397L10.5658 10.494L9.66283 11.397L10.5658 12.2999Z" fill="white"/>
<path d="M5.74975 4.99598L6.65271 4.09302L5.74975 3.19006L4.84679 4.09302L5.74975 4.99598Z" fill="white"/>
<path d="M5.74975 8.64783L6.65271 7.74487L5.74975 6.84191L4.84679 7.74487L5.74975 8.64783Z" fill="white"/>
<path d="M5.74975 12.2999L6.65271 11.397L5.74975 10.494L4.84679 11.397L5.74975 12.2999Z" fill="white"/>
<path d="M0.934075 4.99598L1.83704 4.09302L0.934075 3.19006L0.031114 4.09302L0.934075 4.99598Z" fill="white"/>
<path d="M0.934075 8.64783L1.83704 7.74487L0.934075 6.84191L0.0311135 7.74487L0.934075 8.64783Z" fill="white"/>
<path d="M0.934075 12.2999L1.83704 11.397L0.934075 10.494L0.031114 11.397L0.934075 12.2999Z" fill="white"/>
<path d="M30.1245 -0.123047H12.4062V1.74203H30.1245V-0.123047Z" fill="#F0263C"/>
<path d="M25.4618 3.60718H12.4062V5.47226H25.4618V3.60718Z" fill="#F0263C"/>
<path d="M25.4618 7.33716H12.4062V9.20224H25.4618V7.33716Z" fill="#F0263C"/>
<path d="M30.1245 11.0674H12.4062V12.9325H30.1245V11.0674Z" fill="#F0263C"/>
<path d="M30.0314 14.7976H0.656372V16.6627H30.0314V14.7976Z" fill="#F0263C"/>
<path d="M30.0314 18.5276H0.656372V20.3927H30.0314V18.5276Z" fill="#F0263C"/>
<path d="M30.0314 22.2581H0.656372V24.1231H30.0314V22.2581Z" fill="#F0263C"/>
</g>
</g>
</g>
</g>
<rect x="0.90625" y="0.5" width="23" height="23" rx="11.5" stroke="#0E0F0C"/>
<defs>
<clipPath id="clip0_704_18977">
<rect x="0.40625" width="24" height="24" rx="12" fill="white"/>
</clipPath>
<clipPath id="clip1_704_18977">
<rect width="24" height="24" fill="white" transform="translate(0.40625)"/>
</clipPath>
</defs>
</svg>
